<svg id="flat" height="512" viewBox="0 0 512 512" width="512" xmlns="http://www.w3.org/2000/svg"><path d="m408 488v-264h-80v264h24l16-160 24 160z" fill="#62798c"/><path d="m387.702 322.509-11.702-58.509h32l8 40z" fill="#8899f7"/><path d="m468.298 322.509 11.702-58.509h-32l-8 40z" fill="#8899f7"/><rect fill="#6173e8" height="184" rx="24" width="120" x="368" y="304"/><path d="m368 440h120v24a24 24 0 0 1 -24 24h-72a24 24 0 0 1 -24-24z" fill="#4e62e6"/><path d="m472 264h-24l-16-64-16-24-8 48h-80l-8-48-17.78 29.63-6.22 10.37h-40v-29.71l24-10.29 19.37988-45.23a31.98363 31.98363 0 0 1 15.10012-16.01l37.52-18.76h32l39.33008 19.67a32.04187 32.04187 0 0 1 13.48 12.74l27.18992 47.59z" fill="#6173e8"/><path d="m24 280h304v40h-304z" fill="#b1712c"/><path d="m48 208v-80a48 48 0 0 1 48-48h.0001a48 48 0 0 1 48 48v80z" fill="#b1712c"/><path d="m176 245.33v34.67h-128a24 24 0 0 1 -24-24v-24l11.23121-22.46243a32 32 0 0 1 14.30547-14.30815l11.7934-5.89942 26.66992-13.33h16l30.75621 18.45373a32 32 0 0 1 13.24739 15.55527l11.9964 29.991z" fill="#ffa100"/><path d="m208 256v24h-32v-34.67z" fill="#ffceb6"/><path d="m24 320h304v168h-304z" fill="#91591c"/><path d="m120 128-16-16-7.12481 10.68721a29.89622 29.89622 0 0 1 -24.87519 13.31279v16a24 24 0 0 0 24 24 24 24 0 0 0 24-24z" fill="#ffceb6"/><path d="m120 256v24h-32v-32z" fill="#ffceb6"/><path d="m488 336-24 32h-72l-24-32v-8a24 24 0 0 1 24-24h72a24 24 0 0 1 24 24z" fill="#7588f0"/><path d="m400 304h16v184h-16z" fill="#d69651"/><path d="m440 304h16v184h-16z" fill="#d69651"/><path d="m129 191-33 33-34.67-34.67 26.67-13.33h16z" fill="#e67a00"/><path d="m344 56v24a24 24 0 0 0 24 24 24 24 0 0 0 24-24v-24z" fill="#ffceb6"/><path d="m344 56v-13.57781a18.42218 18.42218 0 0 1 18.42219-18.42219 18.42223 18.42223 0 0 1 10.21881 3.094l19.359 12.906v16z" fill="#b1712c"/><path d="m302.22 205.63-6.22 10.37h-40v-29.71l24-10.29z" fill="#ffceb6"/><path d="m472 264h-24l-16-64 32-24z" fill="#ffceb6"/><path d="m176 168h80v48h-80z" fill="#02c26a"/><path d="m208 168h16v48h-16z" fill="#ffc431"/><path d="m240 496a8.00008 8.00008 0 0 1 -8-8v-16a8 8 0 0 1 16 0v16a8.00008 8.00008 0 0 1 -8 8z" fill="#9dabfc"/><path d="m312 496a8.00008 8.00008 0 0 1 -8-8v-16a8 8 0 0 1 16 0v16a8.00008 8.00008 0 0 1 -8 8z" fill="#9dabfc"/><path d="m216 352h120v120h-120z" fill="#6173e8"/><path d="m304 376h-16v-56h-24v56h-16v-64a8.00008 8.00008 0 0 1 8-8h40a8.00008 8.00008 0 0 1 8 8z" fill="#9dabfc"/></svg>